<svg xmlns="http://www.w3.org/2000/svg" viewBox="0 0 24 24" fill="none">
  <path d="M12 2C6.477 2 2 6.477 2 12c0 4.418 2.865 8.166 6.84 9.49.5.09.68-.27.68-.6 0-.3-.01-1.07-.015-2.1-2.782.603-3.369-1.34-3.369-1.34-.454-.62-1.11-.78-1.11-.78-.908-.62.07-.608.07-.608 1.003.07 1.53 1.03 1.53 1.03.892 1.52 2.34 1.08 2.91.83.09-.65.35-1.09.63-1.34-2.22-.25-4.55-1.11-4.55-4.94 0-1.09.39-1.98 1.03-2.68-.1-.25-.45-1.27.1-2.65 0 0 .84-.27 2.75 1.02A9.58 9.58 0 0112 6.84c.85 0 1.71.11 2.5.33 1.91-1.29 2.75-1.02 2.75-1.02.55 1.38.2 2.4.1 2.65.64.7 1.03 1.59 1.03 2.68 0 3.84-2.34 4.69-4.57 4.94.36.31.69.92.69 1.85 0 1.34-.01 2.42-.01 2.75 0 .33.18.69.69.57 3.97-1.32 6.8-5.07 6.8-9.49C22 6.477 17.523 2 12 2z" fill="#000000"/>
</svg>
