<svg xmlns="http://www.w3.org/2000/svg" viewBox="0 0 24 24" fill="none">
  <path d="M20.5 0.007H19.7C18.7 0.005 17.8 0.8 17.8 1.8v4.1c0 0.9-0.7 1.6-1.6 1.6-0.5 0-1-0.2-1.3-0.5L9.2 0.8C8.4 0.3 7.4 0 6.3 0C4.3 0 2.6 1.6 2.6 3.6v4.1c0 0.9-0.7 1.6-1.6 1.6-0.5 0-1-0.2-1.3-0.5L0.3 0.1C0.2-0.1 0-0.1 0 0.2v3.7c0 0.2 0.1 0.4 0.2 0.5l4.7 6.4c0.3 0.4 0.7 0.7 1.2 0.8c1.1 0.3 2.1-0.8 2.1-1.9v-4.1c0-0.9 0.7-1.6 1.6-1.6h0.1c0.5 0 1 0.2 1.3 0.5l3.7 5.9c0.4 0.5 1 0.8 1.6 0.8c1.1 0 2-0.9 2-2v-4.1c0-0.9 0.7-1.6 1.6-1.6h0.1c0.1 0 0.2 0 0.2 0.1v-3.7c0-0.1-0.1-0.2-0.2-0.2h-0.2z" fill="#10B981"/>
</svg>
